<mxfile host="Electron" modified="2024-11-06T14:38:30.300Z" agent="Mozilla/5.0 (Windows NT 10.0; Win64; x64) AppleWebKit/537.36 (KHTML, like Gecko) draw.io/22.0.3 Chrome/114.0.5735.289 Electron/25.8.4 Safari/537.36" etag="s4k4d2SPU1D2MAeOe-0v" version="22.0.3" type="device">
  <diagram name="第 1 页" id="cKp5QebW22y5WKqhokOh">
    <mxGraphModel dx="941" dy="644" grid="1" gridSize="10" guides="1" tooltips="1" connect="1" arrows="1" fold="1" page="1" pageScale="1" pageWidth="827" pageHeight="1169" math="0" shadow="0">
      <root>
        <mxCell id="0" />
        <mxCell id="1" parent="0" />
        <mxCell id="iiKooA0MbjfxzBxgS3xx-1" value="&lt;b&gt;User&lt;/b&gt;" style="shape=umlActor;verticalLabelPosition=bottom;verticalAlign=top;html=1;outlineConnect=0;" vertex="1" parent="1">
          <mxGeometry x="60" y="930" width="30" height="60" as="geometry" />
        </mxCell>
        <mxCell id="iiKooA0MbjfxzBxgS3xx-2" value="" style="ellipse;shape=umlEntity;whiteSpace=wrap;html=1;aspect=fixed;" vertex="1" parent="1">
          <mxGeometry x="595" y="902" width="48" height="48" as="geometry" />
        </mxCell>
        <mxCell id="iiKooA0MbjfxzBxgS3xx-3" value="" style="shape=umlBoundary;whiteSpace=wrap;html=1;aspect=fixed;" vertex="1" parent="1">
          <mxGeometry x="205" y="800" width="60" height="48" as="geometry" />
        </mxCell>
        <mxCell id="iiKooA0MbjfxzBxgS3xx-4" value="&lt;b&gt;Equipment Search Page&lt;/b&gt;" style="text;html=1;align=center;verticalAlign=middle;resizable=0;points=[];autosize=1;strokeColor=none;fillColor=none;" vertex="1" parent="1">
          <mxGeometry x="165" y="848" width="160" height="30" as="geometry" />
        </mxCell>
        <mxCell id="iiKooA0MbjfxzBxgS3xx-5" value="" style="shape=umlBoundary;whiteSpace=wrap;html=1;aspect=fixed;" vertex="1" parent="1">
          <mxGeometry x="205" y="920" width="60" height="48" as="geometry" />
        </mxCell>
        <mxCell id="iiKooA0MbjfxzBxgS3xx-6" value="&lt;b&gt;Equipments Description Page&lt;/b&gt;" style="text;html=1;align=center;verticalAlign=middle;resizable=0;points=[];autosize=1;strokeColor=none;fillColor=none;" vertex="1" parent="1">
          <mxGeometry x="150" y="968" width="190" height="30" as="geometry" />
        </mxCell>
        <mxCell id="iiKooA0MbjfxzBxgS3xx-7" value="" style="shape=umlBoundary;whiteSpace=wrap;html=1;aspect=fixed;" vertex="1" parent="1">
          <mxGeometry x="205" y="1230" width="60" height="48" as="geometry" />
        </mxCell>
        <mxCell id="iiKooA0MbjfxzBxgS3xx-8" value="&lt;b&gt;AI Chat Page&lt;/b&gt;" style="text;html=1;align=center;verticalAlign=middle;resizable=0;points=[];autosize=1;strokeColor=none;fillColor=none;" vertex="1" parent="1">
          <mxGeometry x="195" y="1273" width="100" height="30" as="geometry" />
        </mxCell>
        <mxCell id="iiKooA0MbjfxzBxgS3xx-9" value="" style="endArrow=none;html=1;rounded=0;entryX=0.001;entryY=0.472;entryDx=0;entryDy=0;entryPerimeter=0;" edge="1" parent="1" target="iiKooA0MbjfxzBxgS3xx-4">
          <mxGeometry width="50" height="50" relative="1" as="geometry">
            <mxPoint x="100" y="940" as="sourcePoint" />
            <mxPoint x="380" y="980" as="targetPoint" />
          </mxGeometry>
        </mxCell>
        <mxCell id="iiKooA0MbjfxzBxgS3xx-10" value="" style="endArrow=none;html=1;rounded=0;entryX=-0.018;entryY=-0.111;entryDx=0;entryDy=0;entryPerimeter=0;" edge="1" parent="1" target="iiKooA0MbjfxzBxgS3xx-6">
          <mxGeometry width="50" height="50" relative="1" as="geometry">
            <mxPoint x="100" y="960" as="sourcePoint" />
            <mxPoint x="185" y="912" as="targetPoint" />
          </mxGeometry>
        </mxCell>
        <mxCell id="iiKooA0MbjfxzBxgS3xx-11" value="" style="endArrow=none;html=1;rounded=0;" edge="1" parent="1">
          <mxGeometry width="50" height="50" relative="1" as="geometry">
            <mxPoint x="100" y="1120" as="sourcePoint" />
            <mxPoint x="190" y="1240" as="targetPoint" />
          </mxGeometry>
        </mxCell>
        <mxCell id="iiKooA0MbjfxzBxgS3xx-12" value="" style="ellipse;shape=umlControl;whiteSpace=wrap;html=1;aspect=fixed;" vertex="1" parent="1">
          <mxGeometry x="405" y="860" width="42" height="48" as="geometry" />
        </mxCell>
        <mxCell id="iiKooA0MbjfxzBxgS3xx-13" value="&lt;b&gt;Search&amp;nbsp; Application&amp;nbsp;&lt;/b&gt;" style="text;html=1;align=center;verticalAlign=middle;resizable=0;points=[];autosize=1;strokeColor=none;fillColor=none;" vertex="1" parent="1">
          <mxGeometry x="356" y="905" width="140" height="30" as="geometry" />
        </mxCell>
        <mxCell id="iiKooA0MbjfxzBxgS3xx-14" value="" style="endArrow=open;html=1;rounded=0;endFill=0;" edge="1" parent="1">
          <mxGeometry width="50" height="50" relative="1" as="geometry">
            <mxPoint x="285" y="840" as="sourcePoint" />
            <mxPoint x="375" y="870" as="targetPoint" />
          </mxGeometry>
        </mxCell>
        <mxCell id="iiKooA0MbjfxzBxgS3xx-15" value="&lt;b style=&quot;border-color: var(--border-color);&quot;&gt;Equipment Descriptions&lt;/b&gt;" style="text;html=1;align=center;verticalAlign=middle;resizable=0;points=[];autosize=1;strokeColor=none;fillColor=none;" vertex="1" parent="1">
          <mxGeometry x="539" y="950" width="160" height="30" as="geometry" />
        </mxCell>
        <mxCell id="iiKooA0MbjfxzBxgS3xx-16" value="" style="endArrow=open;html=1;rounded=0;endFill=0;startArrow=none;startFill=0;" edge="1" parent="1">
          <mxGeometry width="50" height="50" relative="1" as="geometry">
            <mxPoint x="475" y="890" as="sourcePoint" />
            <mxPoint x="565" y="920" as="targetPoint" />
          </mxGeometry>
        </mxCell>
        <mxCell id="iiKooA0MbjfxzBxgS3xx-17" value="" style="ellipse;shape=umlEntity;whiteSpace=wrap;html=1;aspect=fixed;" vertex="1" parent="1">
          <mxGeometry x="621" y="1380" width="48" height="48" as="geometry" />
        </mxCell>
        <mxCell id="iiKooA0MbjfxzBxgS3xx-18" value="&lt;b style=&quot;border-color: var(--border-color);&quot;&gt;AI Response&amp;nbsp;Content&amp;nbsp;&lt;/b&gt;" style="text;html=1;align=center;verticalAlign=middle;resizable=0;points=[];autosize=1;strokeColor=none;fillColor=none;" vertex="1" parent="1">
          <mxGeometry x="570" y="1428" width="150" height="30" as="geometry" />
        </mxCell>
        <mxCell id="iiKooA0MbjfxzBxgS3xx-19" value="" style="endArrow=open;html=1;rounded=0;endFill=0;exitX=-0.011;exitY=0.895;exitDx=0;exitDy=0;exitPerimeter=0;" edge="1" parent="1">
          <mxGeometry width="50" height="50" relative="1" as="geometry">
            <mxPoint x="539" y="964.8499999999999" as="sourcePoint" />
            <mxPoint x="480" y="990" as="targetPoint" />
          </mxGeometry>
        </mxCell>
        <mxCell id="iiKooA0MbjfxzBxgS3xx-20" value="" style="ellipse;shape=umlControl;whiteSpace=wrap;html=1;aspect=fixed;" vertex="1" parent="1">
          <mxGeometry x="405" y="971" width="42" height="48" as="geometry" />
        </mxCell>
        <mxCell id="iiKooA0MbjfxzBxgS3xx-21" value="&lt;b&gt;Send Result Application&amp;nbsp;&lt;/b&gt;" style="text;html=1;align=center;verticalAlign=middle;resizable=0;points=[];autosize=1;strokeColor=none;fillColor=none;" vertex="1" parent="1">
          <mxGeometry x="346" y="1016" width="160" height="30" as="geometry" />
        </mxCell>
        <mxCell id="iiKooA0MbjfxzBxgS3xx-22" value="" style="endArrow=open;html=1;rounded=0;entryX=0.964;entryY=0.983;entryDx=0;entryDy=0;entryPerimeter=0;endFill=0;" edge="1" parent="1">
          <mxGeometry width="50" height="50" relative="1" as="geometry">
            <mxPoint x="365" y="990" as="sourcePoint" />
            <mxPoint x="285" y="955.5" as="targetPoint" />
          </mxGeometry>
        </mxCell>
        <mxCell id="iiKooA0MbjfxzBxgS3xx-23" value="" style="endArrow=open;html=1;rounded=0;entryX=0.964;entryY=0.983;entryDx=0;entryDy=0;entryPerimeter=0;endFill=0;" edge="1" parent="1">
          <mxGeometry width="50" height="50" relative="1" as="geometry">
            <mxPoint x="345" y="1040" as="sourcePoint" />
            <mxPoint x="271" y="1078" as="targetPoint" />
          </mxGeometry>
        </mxCell>
        <mxCell id="iiKooA0MbjfxzBxgS3xx-24" value="" style="shape=umlBoundary;whiteSpace=wrap;html=1;aspect=fixed;" vertex="1" parent="1">
          <mxGeometry x="205" y="1046" width="60" height="48" as="geometry" />
        </mxCell>
        <mxCell id="iiKooA0MbjfxzBxgS3xx-25" value="&lt;b style=&quot;border-color: var(--border-color);&quot;&gt;Equipments Thumbnail&amp;nbsp;Page&lt;/b&gt;" style="text;html=1;align=center;verticalAlign=middle;resizable=0;points=[];autosize=1;strokeColor=none;fillColor=none;" vertex="1" parent="1">
          <mxGeometry x="150" y="1089" width="190" height="30" as="geometry" />
        </mxCell>
        <mxCell id="iiKooA0MbjfxzBxgS3xx-26" value="" style="endArrow=none;html=1;rounded=0;" edge="1" parent="1">
          <mxGeometry width="50" height="50" relative="1" as="geometry">
            <mxPoint x="100" y="970" as="sourcePoint" />
            <mxPoint x="180" y="1060" as="targetPoint" />
          </mxGeometry>
        </mxCell>
        <mxCell id="iiKooA0MbjfxzBxgS3xx-27" value="" style="ellipse;shape=umlControl;whiteSpace=wrap;html=1;aspect=fixed;" vertex="1" parent="1">
          <mxGeometry x="409" y="1129" width="42" height="48" as="geometry" />
        </mxCell>
        <mxCell id="iiKooA0MbjfxzBxgS3xx-28" value="&lt;b&gt;System Recommendation&amp;nbsp;Application&amp;nbsp;&lt;/b&gt;" style="text;html=1;align=center;verticalAlign=middle;resizable=0;points=[];autosize=1;strokeColor=none;fillColor=none;" vertex="1" parent="1">
          <mxGeometry x="319" y="1177" width="240" height="30" as="geometry" />
        </mxCell>
        <mxCell id="iiKooA0MbjfxzBxgS3xx-29" value="" style="endArrow=open;html=1;rounded=0;entryX=0.501;entryY=0.962;entryDx=0;entryDy=0;entryPerimeter=0;endFill=0;" edge="1" parent="1" target="iiKooA0MbjfxzBxgS3xx-21">
          <mxGeometry width="50" height="50" relative="1" as="geometry">
            <mxPoint x="425" y="1120" as="sourcePoint" />
            <mxPoint x="412.62" y="1109" as="targetPoint" />
          </mxGeometry>
        </mxCell>
        <mxCell id="iiKooA0MbjfxzBxgS3xx-30" value="" style="endArrow=open;html=1;rounded=0;exitX=0.996;exitY=1.005;exitDx=0;exitDy=0;exitPerimeter=0;endFill=0;" edge="1" parent="1" source="iiKooA0MbjfxzBxgS3xx-25">
          <mxGeometry width="50" height="50" relative="1" as="geometry">
            <mxPoint x="345" y="1130" as="sourcePoint" />
            <mxPoint x="395" y="1150" as="targetPoint" />
          </mxGeometry>
        </mxCell>
        <mxCell id="iiKooA0MbjfxzBxgS3xx-31" value="" style="ellipse;shape=umlControl;whiteSpace=wrap;html=1;aspect=fixed;" vertex="1" parent="1">
          <mxGeometry x="405" y="1250.5" width="42" height="48" as="geometry" />
        </mxCell>
        <mxCell id="iiKooA0MbjfxzBxgS3xx-32" value="&lt;b&gt;Send Request Application&amp;nbsp;&lt;/b&gt;" style="text;html=1;align=center;verticalAlign=middle;resizable=0;points=[];autosize=1;strokeColor=none;fillColor=none;" vertex="1" parent="1">
          <mxGeometry x="336" y="1295.5" width="180" height="30" as="geometry" />
        </mxCell>
        <mxCell id="iiKooA0MbjfxzBxgS3xx-33" value="" style="ellipse;shape=umlControl;whiteSpace=wrap;html=1;aspect=fixed;" vertex="1" parent="1">
          <mxGeometry x="618" y="1250.5" width="42" height="48" as="geometry" />
        </mxCell>
        <mxCell id="iiKooA0MbjfxzBxgS3xx-34" value="&lt;b&gt;AI Response&amp;nbsp;Application&amp;nbsp;&lt;/b&gt;" style="text;html=1;align=center;verticalAlign=middle;resizable=0;points=[];autosize=1;strokeColor=none;fillColor=none;" vertex="1" parent="1">
          <mxGeometry x="554" y="1295.5" width="170" height="30" as="geometry" />
        </mxCell>
        <mxCell id="iiKooA0MbjfxzBxgS3xx-35" value="" style="endArrow=open;html=1;rounded=0;exitX=0.996;exitY=1.005;exitDx=0;exitDy=0;exitPerimeter=0;endFill=0;" edge="1" parent="1">
          <mxGeometry width="50" height="50" relative="1" as="geometry">
            <mxPoint x="290" y="1259" as="sourcePoint" />
            <mxPoint x="365" y="1280" as="targetPoint" />
          </mxGeometry>
        </mxCell>
        <mxCell id="iiKooA0MbjfxzBxgS3xx-36" value="" style="endArrow=open;html=1;rounded=0;exitX=0.996;exitY=1.005;exitDx=0;exitDy=0;exitPerimeter=0;endFill=0;" edge="1" parent="1">
          <mxGeometry width="50" height="50" relative="1" as="geometry">
            <mxPoint x="474" y="1278" as="sourcePoint" />
            <mxPoint x="595" y="1280" as="targetPoint" />
          </mxGeometry>
        </mxCell>
        <mxCell id="iiKooA0MbjfxzBxgS3xx-37" value="" style="endArrow=open;html=1;rounded=0;exitX=0.996;exitY=1.005;exitDx=0;exitDy=0;exitPerimeter=0;endFill=0;" edge="1" parent="1">
          <mxGeometry width="50" height="50" relative="1" as="geometry">
            <mxPoint x="643" y="1330" as="sourcePoint" />
            <mxPoint x="643" y="1370" as="targetPoint" />
          </mxGeometry>
        </mxCell>
        <mxCell id="iiKooA0MbjfxzBxgS3xx-38" value="" style="ellipse;shape=umlControl;whiteSpace=wrap;html=1;aspect=fixed;" vertex="1" parent="1">
          <mxGeometry x="405" y="1366.5" width="42" height="48" as="geometry" />
        </mxCell>
        <mxCell id="iiKooA0MbjfxzBxgS3xx-39" value="&lt;b&gt;Send Response Application&amp;nbsp;&lt;/b&gt;" style="text;html=1;align=center;verticalAlign=middle;resizable=0;points=[];autosize=1;strokeColor=none;fillColor=none;" vertex="1" parent="1">
          <mxGeometry x="331" y="1411.5" width="190" height="30" as="geometry" />
        </mxCell>
        <mxCell id="iiKooA0MbjfxzBxgS3xx-40" value="" style="endArrow=open;html=1;rounded=0;endFill=0;" edge="1" parent="1">
          <mxGeometry width="50" height="50" relative="1" as="geometry">
            <mxPoint x="595" y="1410" as="sourcePoint" />
            <mxPoint x="475" y="1400" as="targetPoint" />
          </mxGeometry>
        </mxCell>
        <mxCell id="iiKooA0MbjfxzBxgS3xx-41" value="" style="endArrow=open;html=1;rounded=0;endFill=0;" edge="1" parent="1">
          <mxGeometry width="50" height="50" relative="1" as="geometry">
            <mxPoint x="355" y="1390" as="sourcePoint" />
            <mxPoint x="265" y="1305.5" as="targetPoint" />
          </mxGeometry>
        </mxCell>
        <mxCell id="iiKooA0MbjfxzBxgS3xx-42" value="" style="ellipse;shape=umlControl;whiteSpace=wrap;html=1;aspect=fixed;" vertex="1" parent="1">
          <mxGeometry x="793" y="902" width="42" height="48" as="geometry" />
        </mxCell>
        <mxCell id="iiKooA0MbjfxzBxgS3xx-43" value="&lt;b&gt;Link to Taobao&amp;nbsp;Application&amp;nbsp;&lt;/b&gt;" style="text;html=1;align=center;verticalAlign=middle;resizable=0;points=[];autosize=1;strokeColor=none;fillColor=none;" vertex="1" parent="1">
          <mxGeometry x="724" y="947" width="180" height="30" as="geometry" />
        </mxCell>
        <mxCell id="iiKooA0MbjfxzBxgS3xx-44" value="" style="endArrow=open;html=1;rounded=0;endFill=0;exitX=-0.011;exitY=0.895;exitDx=0;exitDy=0;exitPerimeter=0;" edge="1" parent="1">
          <mxGeometry width="50" height="50" relative="1" as="geometry">
            <mxPoint x="678" y="920" as="sourcePoint" />
            <mxPoint x="750" y="920" as="targetPoint" />
          </mxGeometry>
        </mxCell>
        <mxCell id="iiKooA0MbjfxzBxgS3xx-45" value="" style="ellipse;shape=umlEntity;whiteSpace=wrap;html=1;aspect=fixed;" vertex="1" parent="1">
          <mxGeometry x="600" y="1041" width="48" height="48" as="geometry" />
        </mxCell>
        <mxCell id="iiKooA0MbjfxzBxgS3xx-46" value="&lt;b style=&quot;border-color: var(--border-color);&quot;&gt;Related Product Information&lt;/b&gt;" style="text;html=1;align=center;verticalAlign=middle;resizable=0;points=[];autosize=1;strokeColor=none;fillColor=none;" vertex="1" parent="1">
          <mxGeometry x="534" y="1089" width="180" height="30" as="geometry" />
        </mxCell>
        <mxCell id="iiKooA0MbjfxzBxgS3xx-47" value="" style="endArrow=open;html=1;rounded=0;endFill=0;exitX=-0.011;exitY=0.895;exitDx=0;exitDy=0;exitPerimeter=0;" edge="1" parent="1">
          <mxGeometry width="50" height="50" relative="1" as="geometry">
            <mxPoint x="785" y="986" as="sourcePoint" />
            <mxPoint x="680" y="1060" as="targetPoint" />
          </mxGeometry>
        </mxCell>
        <mxCell id="iiKooA0MbjfxzBxgS3xx-48" value="" style="endArrow=open;html=1;rounded=0;endFill=0;entryX=0.922;entryY=0.011;entryDx=0;entryDy=0;entryPerimeter=0;" edge="1" parent="1" target="iiKooA0MbjfxzBxgS3xx-21">
          <mxGeometry width="50" height="50" relative="1" as="geometry">
            <mxPoint x="570" y="1060" as="sourcePoint" />
            <mxPoint x="690" y="1070" as="targetPoint" />
          </mxGeometry>
        </mxCell>
        <mxCell id="iiKooA0MbjfxzBxgS3xx-49" value="&lt;b&gt;User&lt;/b&gt;" style="shape=umlActor;verticalLabelPosition=bottom;verticalAlign=top;html=1;outlineConnect=0;" vertex="1" parent="1">
          <mxGeometry x="60" y="1100" width="30" height="60" as="geometry" />
        </mxCell>
        <mxCell id="iiKooA0MbjfxzBxgS3xx-50" value="" style="endArrow=block;html=1;rounded=0;exitX=0.5;exitY=0;exitDx=0;exitDy=0;exitPerimeter=0;endFill=0;endSize=15;" edge="1" parent="1" source="iiKooA0MbjfxzBxgS3xx-49">
          <mxGeometry width="50" height="50" relative="1" as="geometry">
            <mxPoint x="340" y="1030" as="sourcePoint" />
            <mxPoint x="75" y="1010" as="targetPoint" />
          </mxGeometry>
        </mxCell>
      </root>
    </mxGraphModel>
  </diagram>
</mxfile>
